{
    "accessors" : [
        {
            "bufferView" : 0, 
            "componentType" : 5123, 
            "count" : 1344, 
            "max" : [
                353
            ], 
            "min" : [
                0
            ], 
            "type" : "SCALAR"
        }, 
        {
            "bufferView" : 1, 
            "componentType" : 5126, 
            "count" : 354, 
            "max" : [
                11.265497207641602, 
                11.007478713989258, 
                3.6119322776794434
            ], 
            "min" : [
                -11.265495300292969, 
                -8.825265884399414, 
                -7.547028541564941
            ], 
            "type" : "VEC3"
        }, 
        {
            "bufferView" : 2, 
            "componentType" : 5126, 
            "count" : 354, 
            "max" : [
                1.0, 
                0.9954222440719604, 
                0.9725638628005981
            ], 
            "min" : [
                -1.0, 
                -0.8745079040527344, 
                -0.9725638628005981
            ], 
            "type" : "VEC3"
        }, 
        {
            "bufferView" : 3, 
            "componentType" : 5126, 
            "count" : 354, 
            "max" : [
                1.0, 
                0.0, 
                -0.0, 
                1.0
            ], 
            "min" : [
                1.0, 
                0.0, 
                -0.0, 
                -1.0
            ], 
            "type" : "VEC4"
        }, 
        {
            "bufferView" : 4, 
            "componentType" : 5126, 
            "count" : 354, 
            "max" : [
                0.0, 
                1.0
            ], 
            "min" : [
                0.0, 
                1.0
            ], 
            "type" : "VEC2"
        }, 
        {
            "bufferView" : 5, 
            "componentType" : 5123, 
            "count" : 4572, 
            "max" : [
                1927
            ], 
            "min" : [
                0
            ], 
            "type" : "SCALAR"
        }, 
        {
            "bufferView" : 6, 
            "componentType" : 5126, 
            "count" : 1928, 
            "max" : [
                7.489241123199463, 
                2.8693222999572754, 
                -2.2264795303344727
            ], 
            "min" : [
                -8.335556030273438, 
                1.869321584701538, 
                -6.356614112854004
            ], 
            "type" : "VEC3"
        }, 
        {
            "bufferView" : 7, 
            "componentType" : 5126, 
            "count" : 1928, 
            "max" : [
                1.0, 
                1.0, 
                1.0
            ], 
            "min" : [
                -1.0, 
                -1.0, 
                -1.0
            ], 
            "type" : "VEC3"
        }, 
        {
            "bufferView" : 8, 
            "componentType" : 5126, 
            "count" : 1928, 
            "max" : [
                0.99853515625, 
                1.0
            ], 
            "min" : [
                0.003077101893723011, 
                0.005870223045349121
            ], 
            "type" : "VEC2"
        }
    ], 
    "asset" : {
        "generator" : "Khronos Blender glTF 2.0 exporter", 
        "version" : "2.0"
    }, 
    "bufferViews" : [
        {
            "buffer" : 0, 
            "byteLength" : 2688, 
            "byteOffset" : 0, 
            "target" : 34963
        }, 
        {
            "buffer" : 0, 
            "byteLength" : 4248, 
            "byteOffset" : 2688, 
            "target" : 34962
        }, 
        {
            "buffer" : 0, 
            "byteLength" : 4248, 
            "byteOffset" : 6936, 
            "target" : 34962
        }, 
        {
            "buffer" : 0, 
            "byteLength" : 5664, 
            "byteOffset" : 11184, 
            "target" : 34962
        }, 
        {
            "buffer" : 0, 
            "byteLength" : 2832, 
            "byteOffset" : 16848, 
            "target" : 34962
        }, 
        {
            "buffer" : 0, 
            "byteLength" : 9144, 
            "byteOffset" : 19680, 
            "target" : 34963
        }, 
        {
            "buffer" : 0, 
            "byteLength" : 23136, 
            "byteOffset" : 28824, 
            "target" : 34962
        }, 
        {
            "buffer" : 0, 
            "byteLength" : 23136, 
            "byteOffset" : 51960, 
            "target" : 34962
        }, 
        {
            "buffer" : 0, 
            "byteLength" : 15424, 
            "byteOffset" : 75096, 
            "target" : 34962
        }
    ], 
    "buffers" : [
        {
            "byteLength" : 90520, 
            "uri" : "sprVRfes-logo.bin"
        }
    ], 
    "materials" : [
        {
            "name" : "Material", 
            "pbrMetallicRoughness" : {
                "baseColorFactor" : [
                    0.6400000190734865, 
                    0.6400000190734865, 
                    0.6400000190734865, 
                    1.0
                ], 
                "metallicFactor" : 0.0
            }
        }, 
        {
            "name" : "Material.001", 
            "pbrMetallicRoughness" : {
                "baseColorFactor" : [
                    0.640000066757203, 
                    0.22529158927934745, 
                    0.21539163910436088, 
                    1.0
                ], 
                "metallicFactor" : 0.0
            }
        }
    ], 
    "meshes" : [
        {
            "name" : "vr_fes.000", 
            "primitives" : [
                {
                    "attributes" : {
                        "NORMAL" : 2, 
                        "POSITION" : 1, 
                        "TANGENT" : 3, 
                        "TEXCOORD_0" : 4
                    }, 
                    "indices" : 0, 
                    "material" : 0
                }
            ]
        }, 
        {
            "name" : "vr_fes.004", 
            "primitives" : [
                {
                    "attributes" : {
                        "NORMAL" : 7, 
                        "POSITION" : 6, 
                        "TEXCOORD_0" : 8
                    }, 
                    "indices" : 5, 
                    "material" : 1
                }
            ]
        }
    ], 
    "nodes" : [
        {
            "mesh" : 1, 
            "name" : "01ya", 
            "rotation" : [
                0.5074590444564819, 
                3.93259828093961e-17, 
                3.93259828093961e-17, 
                0.8616758584976196
            ], 
            "scale" : [
                0.5, 
                0.5, 
                0.5
            ]
        }, 
        {
            "mesh" : 0, 
            "name" : "01ya.001", 
            "rotation" : [
                0.5074590444564819, 
                3.93259828093961e-17, 
                3.93259828093961e-17, 
                0.8616758584976196
            ], 
            "scale" : [
                0.5, 
                0.5, 
                0.5
            ]
        }
    ], 
    "scene" : 0, 
    "scenes" : [
        {
            "name" : "Scene", 
            "nodes" : [
                1, 
                0
            ]
        }
    ]
}
