{
    "accessors" : [
        {
            "bufferView" : 0, 
            "componentType" : 5123, 
            "count" : 4572, 
            "max" : [
                1927
            ], 
            "min" : [
                0
            ], 
            "type" : "SCALAR"
        }, 
        {
            "bufferView" : 1, 
            "componentType" : 5126, 
            "count" : 1928, 
            "max" : [
                7.489241123199463, 
                2.8693222999572754, 
                -2.2264795303344727
            ], 
            "min" : [
                -8.335556030273438, 
                1.869321584701538, 
                -6.356614112854004
            ], 
            "type" : "VEC3"
        }, 
        {
            "bufferView" : 2, 
            "componentType" : 5126, 
            "count" : 1928, 
            "max" : [
                1.0, 
                1.0, 
                1.0
            ], 
            "min" : [
                -1.0, 
                -1.0, 
                -1.0
            ], 
            "type" : "VEC3"
        }, 
        {
            "bufferView" : 3, 
            "componentType" : 5126, 
            "count" : 1928, 
            "max" : [
                0.99853515625, 
                1.0
            ], 
            "min" : [
                0.003077101893723011, 
                0.005870223045349121
            ], 
            "type" : "VEC2"
        }
    ], 
    "asset" : {
        "generator" : "Khronos Blender glTF 2.0 exporter", 
        "version" : "2.0"
    }, 
    "bufferViews" : [
        {
            "buffer" : 0, 
            "byteLength" : 9144, 
            "byteOffset" : 0, 
            "target" : 34963
        }, 
        {
            "buffer" : 0, 
            "byteLength" : 23136, 
            "byteOffset" : 9144, 
            "target" : 34962
        }, 
        {
            "buffer" : 0, 
            "byteLength" : 23136, 
            "byteOffset" : 32280, 
            "target" : 34962
        }, 
        {
            "buffer" : 0, 
            "byteLength" : 15424, 
            "byteOffset" : 55416, 
            "target" : 34962
        }
    ], 
    "buffers" : [
        {
            "byteLength" : 70840, 
            "uri" : "sprVRfes_font.bin"
        }
    ], 
    "materials" : [
        {
            "name" : "Material.001", 
            "pbrMetallicRoughness" : {
                "baseColorFactor" : [
                    0.640000066757203, 
                    0.22529158927934745, 
                    0.21539163910436088, 
                    1.0
                ], 
                "metallicFactor" : 0.0
            }
        }
    ], 
    "meshes" : [
        {
            "name" : "vr_fes.004", 
            "primitives" : [
                {
                    "attributes" : {
                        "NORMAL" : 2, 
                        "POSITION" : 1, 
                        "TEXCOORD_0" : 3
                    }, 
                    "indices" : 0, 
                    "material" : 0
                }
            ]
        }
    ], 
    "nodes" : [
        {
            "mesh" : 0, 
            "name" : "01ya", 
            "rotation" : [
                0.5074590444564819, 
                3.93259828093961e-17, 
                3.93259828093961e-17, 
                0.8616758584976196
            ], 
            "scale" : [
                0.5, 
                0.5, 
                0.5
            ]
        }
    ], 
    "scene" : 0, 
    "scenes" : [
        {
            "name" : "Scene", 
            "nodes" : [
                0
            ]
        }
    ]
}
